<?xml version="1.0" encoding="UTF-8"?>
<svg id="Capa_1" data-name="Capa 1" xmlns="http://www.w3.org/2000/svg" viewBox="0 0 18.6 20.3">
  <defs>
    <style>
      .cls-1 {
        fill: #0077b6;
        stroke-width: 0px;
      }
    </style>
  </defs>
  <path class="cls-1" d="m0,14.2c0-.1,0-.2,0-.2,0-2,0-4,0-6.1,0-1.3.9-2.2,2.2-2.2,1.2,0,2.3,0,3.5,0,1.3,0,2.1.9,2.1,2.1,0,2,0,4.1,0,6.1,0,0,0,.1,0,.2h-1.4v6.1H1.4v-6.1H0Zm2.7-1.4v6.1h2.4v-6.1h1.3c0,0,0-.1,0-.2,0-1.6,0-3.2,0-4.8,0-.5-.3-.8-.8-.8-1.2,0-2.3,0-3.5,0-.5,0-.8.3-.8.8,0,1.6,0,3.2,0,4.7v.2h1.4Z"/>
  <path class="cls-1" d="m15.9,20.3h-4.4v-4h-2.7c0-.5,0-1,0-1.4,0-.2,0-.5.1-.7.8-2.2,1.6-4.4,2.5-6.6.4-1.1,1.4-1.8,2.5-1.8,1.1,0,2.1.7,2.4,1.8.3.7.5,1.5.8,2.3.5,1.4.9,2.7,1.4,4.1,0,.1,0,.2,0,.4,0,.6,0,1.2,0,1.7,0,0,0,.1,0,.2h-2.7v4.1Zm1.4-5.4c0-.2,0-.5,0-.7-.7-2.1-1.4-4.2-2.2-6.3-.2-.5-.6-.9-1.2-.9-.5,0-1,.3-1.2.8-.8,2.2-1.7,4.4-2.5,6.6,0,0,0,.2,0,.3h2.7v4h1.7v-4.1h2.7Z"/>
  <path class="cls-1" d="m16.6,2.6c0,1.4-1.2,2.6-2.6,2.6-1.4,0-2.6-1.2-2.6-2.6C11.3,1.2,12.5,0,14,0c1.5,0,2.6,1.2,2.6,2.6Zm-1.4,0c0-.7-.6-1.3-1.3-1.3-.7,0-1.3.6-1.3,1.3,0,.7.6,1.3,1.3,1.3.7,0,1.3-.6,1.3-1.3Z"/>
  <path class="cls-1" d="m3.9,0c1.5,0,2.6,1.2,2.6,2.6,0,1.4-1.2,2.6-2.6,2.6-1.4,0-2.6-1.2-2.6-2.6C1.3,1.2,2.5,0,3.9,0Zm1.3,2.6c0-.7-.6-1.3-1.3-1.3-.7,0-1.3.6-1.3,1.3,0,.7.6,1.3,1.3,1.3.7,0,1.3-.6,1.3-1.3Z"/>
</svg>