<?xml version="1.0" encoding="UTF-8"?>
<svg id="Capa_1" data-name="Capa 1" xmlns="http://www.w3.org/2000/svg" viewBox="0 0 23.5 20.3">
  <defs>
    <style>
      .cls-1 {
        fill: #0077b6;
        stroke-width: 0px;
      }
    </style>
  </defs>
  <path class="cls-1" d="m0,11.9c0-.2,0-.4.2-.7.4-1.1,1.1-1.9,2.3-2.3.2,0,.2-.2.2-.3,0-2.1,0-4.1,0-6.2,0-1.2.7-2.1,1.8-2.4.2,0,.4,0,.7,0C9.6,0,14,0,18.4,0c1.4,0,2.5,1.1,2.5,2.5,0,2.1,0,4.1,0,6.2,0,0,0,.2,0,.2.4.2.8.4,1.2.6,1,.7,1.5,1.6,1.5,2.8,0,1.6,0,3.3,0,4.9,0,.5-.3.7-.8.7-.6,0-1.3,0-1.9,0,0,.1,0,.3,0,.4,0,.4,0,.8,0,1.2,0,.4-.3.8-.7.8-.4,0-.7-.3-.7-.8,0-.5,0-1.1,0-1.6H4.1c0,0,0,.2,0,.3,0,.5,0,.9,0,1.4,0,.5-.3.8-.7.8-.4,0-.7-.3-.7-.8,0-.5,0-1.1,0-1.6h-1c-.3,0-.5,0-.8,0-.4,0-.7-.1-.9-.6,0-1.8,0-3.6,0-5.4Zm22.1,4.6c0,0,0-.1,0-.1,0-1.3,0-2.6,0-3.9,0-.2,0-.4,0-.6-.3-1-1.1-1.6-2.1-1.6-5.4,0-10.9,0-16.3,0-.3,0-.7,0-1,.2-.8.4-1.2,1.1-1.2,2,0,1.3,0,2.6,0,3.8,0,0,0,.1,0,.2h20.7Zm-15.7-7.6c0-.4,0-.7,0-1,0-.3,0-.5,0-.8.3-1.6,1.7-2.6,3.3-2.7,1.3,0,2.6,0,3.9,0,.2,0,.5,0,.7,0,1.6.3,2.7,1.6,2.7,3.3,0,.4,0,.7,0,1.1h2.3v-.2c0-2,0-4,0-6.1,0-.7-.4-1.1-1.2-1.1-4.3,0-8.7,0-13,0-.8,0-1.2.4-1.2,1.2,0,2,0,4,0,6,0,0,0,.2,0,.3h2.3Zm9.3,0c0-.4,0-.8,0-1.2,0-.9-.8-1.7-1.8-1.7-.4,0-.8,0-1.2,0-1,0-2.1,0-3.1,0-.5,0-1,.3-1.3.6-.6.7-.4,1.5-.5,2.4h7.9Z"/>
</svg>