<?xml version="1.0" encoding="UTF-8"?>
<svg id="Capa_1" data-name="Capa 1" xmlns="http://www.w3.org/2000/svg" viewBox="0 0 42.2 42.2">
  <defs>
    <style>
      .cls-1 {
        fill: #0077b6;
        stroke-width: 0px;
      }
    </style>
  </defs>
  <path class="cls-1" d="m31.8,0h.7c.7.3,1.1.8,1,1.6,0,.6,0,1.2,0,1.9.2,0,.4,0,.5,0,1.2,0,2.4,0,3.6,0,1.9,0,3.3,1,4.2,2.7.2.5.3,1,.5,1.5v30.3s0,0,0,.1c-.5,2.5-2.4,4.1-4.9,4.1-10.8,0-21.5,0-32.3,0-2.8,0-5-2.1-5-4.9,0-9.6,0-19.2,0-28.8,0-2.8,2.1-4.9,4.9-4.9,1.2,0,2.3,0,3.5,0,.1,0,.3,0,.5,0,0-.7,0-1.3,0-1.9,0-.8.3-1.3,1-1.6h.7c.8.4,1,1,1,1.8,0,.6,0,1.1,0,1.7h19.3c0-.6,0-1.2,0-1.7,0-.8.2-1.4,1-1.8Zm7.8,16.8H2.6v.5c0,6.6,0,13.3,0,19.9,0,1.6.9,2.4,2.5,2.4,10.7,0,21.4,0,32,0,1.6,0,2.5-.9,2.5-2.4,0-6.7,0-13.3,0-20s0-.3,0-.4ZM2.6,14.1h37c0-1.9,0-3.7,0-5.6,0-1.4-.9-2.3-2.3-2.3-1.2,0-2.3,0-3.5,0-.1,0-.2,0-.4,0,0,1,0,2,0,2.9,0,.8-.5,1.4-1.3,1.4-.8,0-1.3-.6-1.3-1.4,0-.8,0-1.7,0-2.5,0-.1,0-.3,0-.4H11.5c0,.1,0,.3,0,.4,0,.9,0,1.8,0,2.6,0,.8-.6,1.3-1.3,1.3-.7,0-1.3-.6-1.3-1.4,0-.6,0-1.2,0-1.7,0-.4,0-.8,0-1.3-1.5,0-2.9,0-4.3,0-1,0-1.8,1-1.8,2,0,2,0,3.9,0,5.9Z"/>
  <g>
    <circle class="cls-1" cx="9.7" cy="24.4" r="1.3"/>
    <circle class="cls-1" cx="17.3" cy="24.4" r="1.3"/>
    <circle class="cls-1" cx="25" cy="24.4" r="1.3"/>
    <circle class="cls-1" cx="32.6" cy="24.4" r="1.3"/>
  </g>
  <g>
    <circle class="cls-1" cx="9.7" cy="32" r="1.3"/>
    <circle class="cls-1" cx="17.4" cy="32" r="1.3"/>
    <circle class="cls-1" cx="25" cy="32" r="1.3"/>
    <circle class="cls-1" cx="32.6" cy="32" r="1.3"/>
  </g>
</svg>