<?xml version="1.0" encoding="UTF-8"?>
<svg id="Capa_1" data-name="Capa 1" xmlns="http://www.w3.org/2000/svg" viewBox="0 0 33.1 25.7">
  <defs>
    <style>
      .cls-1 {
        fill: #51b8e5;
        stroke-width: 0px;
      }
    </style>
  </defs>
  <path class="cls-1" d="m33.1,6.6c0,.2,0,.3,0,.5,0,4.8,0,9.6,0,14.5,0,2-1.1,3.5-2.9,4-.4.1-.8.1-1.3.1-8.3,0-16.6,0-24.8,0-2.4,0-4.1-1.7-4.1-4.1,0-4.9,0-9.7,0-14.6,0-.1,0-.2,0-.4.3.2.5.4.8.5,3.9,2.7,7.8,5.4,11.7,8.1,2.5,1.7,5.5,1.7,8,0,4.1-2.8,8.1-5.6,12.2-8.4.1,0,.2-.1.4-.3Z"/>
  <path class="cls-1" d="m16.6,0C20.7,0,24.8,0,29,0c1.9,0,3.4,1.1,4,2.8,0,.3,0,.5-.2.7-4.6,3.2-9.2,6.4-13.9,9.6-1.4.9-3.2.9-4.6,0C9.6,9.9,5,6.6.4,3.4c-.2-.2-.3-.3-.2-.6C.6,1.2,2.1,0,3.8,0c4.3,0,8.5,0,12.8,0h0Z"/>
</svg>