<?xml version="1.0" encoding="UTF-8"?>
<svg id="Capa_1" data-name="Capa 1" xmlns="http://www.w3.org/2000/svg" viewBox="0 0 42.3 42.3">
  <defs>
    <style>
      .cls-1 {
        fill: #0077b6;
        stroke-width: 0px;
      }
    </style>
  </defs>
  <path class="cls-1" d="m22.2,0c1,.3,1.8,1.1,2.5,1.8,5.4,5.4,10.9,10.9,16.3,16.3.4.4.7.8.9,1.3,1.1,2.7-.5,5.4-3.4,5.5-.2,0-.4,0-.7,0,0,.2,0,.3,0,.5,0,4.1,0,8.1,0,12.2,0,2.2-1.4,4-3.5,4.5-.4,0-.8.1-1.1.1-2.2,0-4.3,0-6.5,0-.9,0-1.4-.5-1.4-1.4,0-3.2,0-6.4,0-9.6,0-1.5-.8-2.3-2.3-2.3-1.2,0-2.4,0-3.6,0-1.4,0-2.3.8-2.3,2.3,0,3.2,0,6.3,0,9.5,0,1.1-.5,1.5-1.5,1.5-2.1,0-4.2,0-6.3,0-2.8,0-4.7-2-4.7-4.7,0-4,0-8,0-12,0-.2,0-.3,0-.5-.5,0-.9,0-1.4-.1-1.5-.3-2.5-1.2-3-2.6-.5-1.4-.2-2.7.8-3.8.1-.1.3-.3.4-.4C6.8,12.7,12.2,7.3,17.6,1.9c.8-.8,1.5-1.6,2.6-1.9h2Zm5.6,39.8h.5c1.5,0,3.1,0,4.6,0,1.5,0,2.5-.9,2.5-2.5,0-4.4,0-8.9,0-13.3,0-1.1.5-1.5,1.5-1.5.5,0,1.1,0,1.6,0,.6,0,1-.3,1.2-.8.3-.5.2-1-.2-1.5-.1-.1-.2-.3-.4-.4-5.6-5.6-11.2-11.2-16.7-16.7-.9-.9-1.6-.9-2.5,0-5,5-10,10-15,15-.7.7-1.4,1.4-2.1,2.1-.4.4-.5,1-.3,1.5.2.6.7.9,1.3.9.5,0,1,0,1.6,0,1.1,0,1.6.5,1.6,1.6,0,4.5,0,9,0,13.5,0,1.3.9,2.2,2.2,2.2,1.7,0,3.3,0,5,0,.1,0,.2,0,.4,0,0-.2,0-.3,0-.5,0-2.7,0-5.4,0-8.1,0-2.6,1.8-4.5,4.3-4.6,1.5,0,3,0,4.4,0,.2,0,.5,0,.7,0,2.2.5,3.6,2.3,3.6,4.5,0,2.7,0,5.4,0,8.1,0,.2,0,.3,0,.5Z"/>
</svg>