<?xml version="1.0" encoding="UTF-8"?>
<svg id="Capa_1" data-name="Capa 1" xmlns="http://www.w3.org/2000/svg" viewBox="0 0 24 20.2">
  <defs>
    <style>
      .cls-1 {
        fill: #0077b6;
        stroke-width: 0px;
      }
    </style>
  </defs>
  <path class="cls-1" d="m13.5,8c.6.5,1.3,1,1.9,1.4.4.3.6.7.7,1.1,0,.2,0,.4.2.6,0,.1.3.2.4.2.4,0,.8,0,1.2,0,.4,0,.7.2.9.6.2.4.4.7.6,1.1.2.5.6.5,1,.5.5,0,1,.2,1.4.5.5.4,1,.8,1.6,1.1.4.3.6.6.5,1.1,0,.8-.1,1.6-.2,2.4,0,.3-.3.5-.5.7-.8.3-1.5.7-2.3.9-.2,0-.6,0-.8-.1-2.7-1.9-5.4-3.9-8.1-5.8-.6-.4-1.2-.9-1.8-1.3-.2-.1-.3-.1-.5,0-1.7.8-3.4.9-5.2.3-1.7-.6-2.9-1.6-3.8-3.2C.3,9,0,7.9,0,6.8,0,4.6.9,2.8,2.6,1.5,4.3.1,6.3-.3,8.4.2c1.9.5,3.3,1.6,4.3,3.3.8,1.4,1,2.9.7,4.4ZM6.7,1.6c-1.1,0-2.5.5-3.2,1.2-1.5,1.3-2.1,2.8-1.8,4.8.3,2.1,1.6,3.5,3.5,4.1,1.5.5,2.9.3,4.3-.5.4-.3.8-.3,1.2,0,1.4,1,2.9,2.1,4.3,3.1,1.8,1.3,3.7,2.7,5.5,4,.1,0,.3.2.4.1.4-.1.9-.3,1.3-.5.2-.1,0-.6.1-.9,0,0,0,0,0-.1,0-.4,0-.7-.3-.9-.4-.2-.7-.5-1-.7-.1,0-.2-.2-.4-.2-.4,0-.8-.1-1.1-.1-.4,0-.7-.2-.9-.6-.2-.4-.4-.7-.6-1.1-.2-.3-.3-.5-.7-.5-.3,0-.6,0-.9,0-.4,0-.9,0-1.2-.4-.1-.2-.2-.5-.3-.7-.2-.5-.2-1-.7-1.3-.7-.4-1.3-.9-2-1.4-.4-.3-.5-.5-.4-1,.3-1.2.2-2.3-.3-3.4-1-2-2.6-3-4.8-3Z"/>
  <path class="cls-1" d="m3.4,6.1c0-1.3,1.1-2.4,2.3-2.4,1.3,0,2.4,1,2.4,2.3,0,1.4-1,2.4-2.3,2.5-1.3,0-2.4-.9-2.4-2.3Zm2.4-.8c-.4,0-.8.3-.8.7,0,.4.4.8.8.8.4,0,.8-.4.8-.8,0-.3-.4-.7-.8-.7Z"/>
</svg>