<?xml version="1.0" encoding="UTF-8"?>
<svg id="Capa_1" data-name="Capa 1" xmlns="http://www.w3.org/2000/svg" viewBox="0 0 25.9 20.3">
  <defs>
    <style>
      .cls-1 {
        fill: #0077b6;
        stroke-width: 0px;
      }
    </style>
  </defs>
  <path class="cls-1" d="m2.8,18.7c0-.1,0-.2,0-.4,0-2.9,0-5.8,0-8.7,0-.2,0-.3-.3-.5-1.1-.7-1.6-1.7-1.7-2.9,0-.2,0-.4,0-.5.6-1.7,1.3-3.5,1.9-5.2C3,.2,3.2,0,3.7,0c6.1,0,12.3,0,18.4,0,.5,0,.7.2.9.6.6,1.7,1.2,3.4,1.9,5.1.2.5,0,1,0,1.4-.3.9-.8,1.6-1.6,2.1-.2,0-.2.2-.2.4,0,2.9,0,5.9,0,8.8,0,0,0,.1,0,.3.7,0,1.3,0,2,0,.6,0,.9.5.8,1,0,.3-.3.5-.7.6-.1,0-.2,0-.3,0-7.9,0-15.9,0-23.8,0-.7,0-1.1-.3-1.1-.8,0-.5.4-.8,1-.8.6,0,1.2,0,1.8,0Zm8.6,0h10.1v-8.9c-1.2,0-2.1-.5-2.9-1.4-.8.9-1.7,1.4-2.8,1.4-1.1,0-2.1-.5-2.8-1.3-1.5,1.8-4.1,1.8-5.7,0-.7.9-1.7,1.3-2.9,1.4v8.9h1.8c0-.1,0-.3,0-.4,0-1.6,0-3.1,0-4.7,0-1.4,1-2.5,2.3-2.6,1.4-.1,2.6.8,2.8,2.2,0,.4,0,.7,0,1.1,0,1.4,0,2.9,0,4.3ZM9,1.6c0,0,0,.2,0,.3-.3,1.4-.5,2.7-.7,4.1,0,.3,0,.7.1,1,.3.9,1.3,1.4,2.3,1.2.9-.2,1.6-1,1.6-1.9,0-1.5,0-3,0-4.5,0,0,0,0,0-.1h-3.2Zm4.8,0c0,1.6,0,3.2,0,4.7,0,.7.4,1.3,1.1,1.6.7.4,1.5.3,2.2-.2.6-.5.9-1.1.7-2,0-.4-.2-.9-.2-1.3-.2-1-.4-1.9-.5-2.9h-3.2Zm-6.4,0c-1,0-1.9,0-2.9,0-.2,0-.3,0-.4.3-.5,1.4-1,2.8-1.5,4.2,0,.2,0,.4,0,.6.2,1,1.1,1.6,2.1,1.5,1,0,1.8-.9,1.9-1.9,0-.2,0-.5,0-.7.2-1.3.5-2.7.7-4.1Zm11.2,0c0,.5.2,1,.3,1.5.2,1.1.4,2.2.6,3.4.1,1,.9,1.7,1.9,1.7.9,0,1.8-.6,2.1-1.6,0-.2,0-.3,0-.5-.5-1.5-1.1-2.9-1.6-4.4,0,0-.1-.2-.2-.2-1,0-2,0-3,0Zm-8.7,17.1c0,0,0-.2,0-.2,0-1.6,0-3.1,0-4.7,0-.7-.4-1.1-1-1.1-.6,0-1,.4-1,1.1,0,1.5,0,3.1,0,4.6,0,0,0,.2,0,.3h2Z"/>
</svg>