<?xml version="1.0" encoding="UTF-8"?>
<svg id="Capa_1" data-name="Capa 1" xmlns="http://www.w3.org/2000/svg" viewBox="0 0 27.8 25.7">
  <defs>
    <style>
      .cls-1 {
        fill: #51b8e5;
        stroke-width: 0px;
      }
    </style>
  </defs>
  <path class="cls-1" d="m25.1,24.5c-1.3.7-2.6,1.2-4,1.2-1.7,0-3.1-.5-4.5-1-5.2-1.7-9.1-5.1-12.4-9.3-1.4-1.8-2.8-3.6-3.6-5.8C-.6,6.4,0,3.4,2.4.8,2.9.2,3.7,0,4.4,0c.5,0,1.1,0,1.6,0,.5,0,.8.5.9.9.6,1.3,1.1,2.6,1.7,3.9.2.4.3.9.6,1.3.3.5.2,1-.1,1.5-.5.6-.9,1.3-1.4,1.9-.7.9-.7,1-.2,2,2.2,3.6,5.2,6.2,9,7.7.8.3,1.1.2,1.6-.4.6-.8,1.3-1.5,1.9-2.3.5-.6.8-.8,1.6-.5.5.2,1,.4,1.5.6,1.3.6,2.6,1.2,3.9,1.7.5.2.8.6.7,1.2,0,2-.8,3.7-2.6,4.8Z"/>
</svg>