<?xml version="1.0" encoding="UTF-8"?>
<svg id="Capa_1" data-name="Capa 1" xmlns="http://www.w3.org/2000/svg" viewBox="0 0 20.3 20.3">
  <defs>
    <style>
      .cls-1 {
        fill: #0077b6;
        stroke-width: 0px;
      }
    </style>
  </defs>
  <path class="cls-1" d="m20.3,20.3H0V0h20.3v20.3Zm-7.6-14.4v7.6h-5.1v1.7h6.8c0-.6,0-1.2,0-1.7,0-2.2,1.5-4.2,3.7-4.8.2,0,.4,0,.5-.1v-2.6h-5.9ZM1.7,11v7.6h7.6v-1.7h-3.4v-3.4h-2.5v-3.1c-.6.2-1.1.3-1.7.5Zm9.3-5h-4.3c-.2,1.2-.7,2.3-1.5,3.2,0,0,0,.2,0,.3,0,.5,0,1.1,0,1.6,0,.3,0,.6,0,.8h5.9v-5.9Zm-4.2-1.7h11.8V1.7H6.8v2.5Zm9.3,12.7h-5.1v1.7h7.6v-8.3c-.1,0-.2,0-.3,0-1.4.5-2.2,1.7-2.2,3.2,0,1.1,0,2.2,0,3.4ZM1.7,9.2c0,0,.1,0,.2,0,1.9-.5,3.2-2.1,3.2-4.1,0-1.1,0-2.2,0-3.2,0,0,0-.1,0-.2H1.7v7.5Z"/>
</svg>