<?xml version="1.0" encoding="UTF-8"?>
<svg id="Capa_1" data-name="Capa 1" xmlns="http://www.w3.org/2000/svg" viewBox="0 0 73.7 87.1">
  <defs>
    <style>
      .cls-1 {
        fill: #0077b6;
        stroke-width: 0px;
      }
    </style>
  </defs>
  <g>
    <path class="cls-1" d="m.1,35.4c.4-.4.7-.9,1.1-1.3,4.5-4.9,9.1-9.8,13.6-14.7.5-.6,1.1-.8,1.8-.8,13.5,0,27.1,0,40.6,0,.8,0,1.3.2,1.8.8,4.7,5.1,9.4,10.2,14.1,15.3.7.8.7,1.3,0,2.2-7.6,9.4-15.2,18.8-22.8,28.3-4.1,5.1-8.1,10.1-12.2,15.2-.9,1.1-1.6,1.1-2.5,0C24,65.9,12.4,51.4.8,37c-.2-.3-.4-.6-.6-.8,0,0-.1-.2-.1-.4,0-.2.1-.3.1-.3Zm34,39.1s0,0,.1,0c0-.2,0-.4-.1-.5-1.3-5.1-2.6-10.2-3.9-15.4-.3-1.3-.7-2.6-1-4-.1-.5-.1-1.1.4-1.4.4-.2.9-.3,1.3-.1.3.2.6.7.7,1.1,1.7,6.6,3.4,13.2,5,19.7,0,.2.1.5.2.7.2-.2.3-.4.3-.7,1.2-4.6,2.3-9.2,3.5-13.8.5-2.1,1.1-4.1,1.6-6.2.2-.6.5-1,1.2-1.1.6,0,1,.2,1.2.7,0,.3,0,.8,0,1.1-1.2,4.9-2.5,9.7-3.7,14.6-.4,1.7-.9,3.4-1.3,5.1,0,0,0,0,.1,0,10-12.5,20.1-24.9,30.2-37.5h-21c-.6,2.3-1.1,4.5-1.6,6.7-.5,1.9-.9,3.7-1.4,5.6-.2.8-.8,1.2-1.5,1.1-.7-.1-1.1-.7-.9-1.6,0,0,0-.2,0-.3.4-1.6.8-3.2,1.2-4.8.5-2.2,1.1-4.4,1.6-6.7h-18.9c.5,2.2,1.1,4.4,1.6,6.6.4,1.6.8,3.3,1.2,4.9,0,.2,0,.3,0,.5,0,.8-.3,1.3-1,1.4-.6.1-1.2-.2-1.4-1-.5-1.9-.9-3.8-1.4-5.7-.5-2.2-1.1-4.5-1.7-6.8h-.8c-3.5,0-6.9,0-10.4,0-2,0-3.9,0-5.9,0-1,0-1.5-.5-1.5-1.3,0-.8.5-1.2,1.5-1.2.2,0,.4,0,.6,0,4.8,0,9.6,0,14.4,0h.9c-2.7-4.3-5.2-8.5-7.8-12.7-4.3,4.7-8.6,9.3-12.9,14,10.4,12.9,20.8,25.8,31.2,38.7Zm23.8-52.7c-2.6,4.2-5.2,8.4-7.8,12.6h19.5c-3.9-4.3-7.8-8.4-11.7-12.6Zm-29.7,12.7h17.3c-2.9-4.2-5.8-8.3-8.7-12.5-2.9,4.2-5.8,8.3-8.7,12.5Zm-2.3-1c2.9-4.2,5.7-8.3,8.6-12.4h-16.3c2.6,4.2,5.1,8.3,7.6,12.4Zm22,0c2.6-4.2,5.1-8.3,7.6-12.4h-16.2c2.9,4.2,5.7,8.2,8.6,12.4Z"/>
    <path class="cls-1" d="m66.4,0c.4.5.8,1,1.1,1.6.5,1,.8,2.3,1.6,3,.8.8,2,1.1,3,1.6.2,0,.3.2.5.3.6.2,1.1.6,1.1,1.3,0,.7-.5,1-1.1,1.3-1,.5-2.1,1-3.1,1.5-.3.2-.6.5-.8.8-.6,1.1-1.1,2.1-1.6,3.2-.3.5-.6.9-1.3.9-.6,0-.9-.4-1.2-.9-.6-1.3-1-2.8-1.9-3.7-.9-.9-2.4-1.3-3.7-1.9-.5-.3-.9-.6-.9-1.2,0-.6.4-1,.9-1.2,1.1-.5,2.2-1,3.3-1.6.3-.1.5-.4.7-.7.5-1,.9-2,1.5-3,.2-.5.6-.9.9-1.3.3,0,.6,0,.9,0Zm3.2,7.8c-1.9-.6-3-1.8-3.7-3.6-.5,2-1.8,3-3.6,3.7,1.9.5,3,1.8,3.6,3.6.5-1.9,1.8-3,3.6-3.6Z"/>
    <path class="cls-1" d="m66,87.1c-.4,0-.8-.5-1.2-1.2-.9-1.5-1-2.1-1.7-3.3-.1-.3-.4-.5-.7-.7-1.1-.6-2.2-1.1-3.3-1.6-.5-.3-.9-.6-.9-1.2,0-.6.4-1,.9-1.2,1-.5,2.1-1,3.1-1.5.4-.2.8-.6,1-1,.6-1,1-2.1,1.5-3.1.2-.5.6-.9,1.2-.9.6,0,1,.4,1.2.9.5,1.1,1.1,2.2,1.6,3.4.1.3.4.5.6.6,1.1.6,2.2,1.1,3.4,1.6.5.3.9.6.9,1.2,0,.6-.4.9-.9,1.2-1,.5-2.1,1-3.1,1.5-.5.2-.8.6-1.1,1.1-.7,1.5-1.1,2.4-1.5,3.1-.4.7-.7,1.2-1.2,1.2Zm3.6-8c-1.9-.6-3-1.8-3.6-3.7-.6,1.9-1.7,3.1-3.6,3.7,1.9.6,3,1.8,3.6,3.6.6-1.9,1.7-3.1,3.6-3.6Z"/>
    <path class="cls-1" d="m7.7,87.1c-.4,0-.8-.5-1.2-1.2-.9-1.5-1-2.1-1.7-3.3-.1-.3-.4-.5-.7-.7-1.1-.6-2.2-1.1-3.3-1.6-.5-.3-.9-.6-.9-1.2,0-.6.4-1,.9-1.2,1-.5,2.1-1,3.1-1.5.4-.2.8-.6,1-1,.6-1,1-2.1,1.5-3.1.2-.5.6-.9,1.2-.9.6,0,1,.4,1.2.9.5,1.1,1.1,2.2,1.6,3.4.1.3.4.5.6.6,1.1.6,2.2,1.1,3.4,1.6.5.3.9.6.9,1.2,0,.6-.4.9-.9,1.2-1,.5-2.1,1-3.1,1.5-.5.2-.8.6-1.1,1.1-.7,1.5-1.1,2.4-1.5,3.1-.4.7-.7,1.2-1.2,1.2Zm3.6-8c-1.9-.6-3-1.8-3.6-3.7-.6,1.9-1.7,3.1-3.6,3.7,1.9.6,3,1.8,3.6,3.6.6-1.9,1.7-3.1,3.6-3.6Z"/>
  </g>
  <polygon class="cls-1" points="29.9 46.9 32.2 56.5 29.8 57 27.5 47.6 29.9 46.9"/>
  <polygon class="cls-1" points="44 47 41.6 56.7 43.9 57.5 46.4 47.3 44 47"/>
</svg>