<?xml version="1.0" encoding="UTF-8"?>
<svg id="Capa_1" data-name="Capa 1" xmlns="http://www.w3.org/2000/svg" viewBox="0 0 87.3 87.3">
  <defs>
    <style>
      .cls-1 {
        fill: #0077b6;
        stroke-width: 0px;
      }
    </style>
  </defs>
  <g>
    <path class="cls-1" d="m84.8,4.2c-2.1,2.1-4.1,4.1-6,6-.9.9-1.6,1-2.2.5-.6-.6-.5-1.3.4-2.2,1.8-1.8,3.6-3.6,5.4-5.4.2-.2.3-.4.6-.7-.5,0-.8,0-1.1,0-1.9,0-3.7,0-5.6,0-.8,0-1.3-.5-1.3-1.2,0-.7.5-1.2,1.3-1.2,3.2,0,6.5,0,9.7,0,.8,0,1.2.5,1.2,1.3,0,3.2,0,6.5,0,9.7,0,.8-.5,1.2-1.2,1.2-.7,0-1.2-.5-1.2-1.3,0-2.2,0-4.4,0-6.8Z"/>
    <path class="cls-1" d="m84.8,82.9c0-1.9,0-3.9,0-5.8,0-.3,0-.5,0-.8,0-.8.5-1.3,1.2-1.3.7,0,1.2.5,1.2,1.3,0,2.2,0,4.4,0,6.6,0,1,0,2,0,3,0,.9-.5,1.4-1.4,1.4-3.2,0-6.3,0-9.5,0-.8,0-1.4-.5-1.4-1.2,0-.7.5-1.2,1.4-1.2,1.9,0,3.8,0,5.7,0,.2,0,.5,0,.9,0-.3-.3-.4-.5-.6-.6-1.9-1.9-3.8-3.8-5.7-5.7-.8-.8-.6-1.8.3-2.2.6-.3,1.1,0,1.5.5,1.8,1.8,3.7,3.7,5.5,5.5.2.2.3.4.5.7,0,0,.1,0,.2-.1Z"/>
    <path class="cls-1" d="m4.2,2.5c2.2,2.2,4.2,4.2,6.2,6.2.3.3.6.7.6,1.1,0,.4-.4.9-.7,1.1-.3.2-1,0-1.3-.2-.8-.7-1.6-1.5-2.4-2.3-1.3-1.3-2.7-2.7-4.1-4.1,0,.3,0,.5,0,.8,0,1.9,0,3.8,0,5.7,0,1-.5,1.5-1.2,1.5-.8,0-1.2-.6-1.2-1.5C0,7.7,0,4.6,0,1.5,0,.4.4,0,1.5,0,4.6,0,7.7,0,10.7,0c1,0,1.5.5,1.5,1.2,0,.8-.6,1.2-1.5,1.2-2.1,0-4.2,0-6.6,0Z"/>
    <path class="cls-1" d="m4.4,84.8c2,0,3.9,0,5.9,0,.2,0,.5,0,.7,0,.8,0,1.3.5,1.3,1.2,0,.7-.5,1.2-1.2,1.2-3.3,0-6.5,0-9.8,0-.7,0-1.2-.5-1.2-1.2,0-3.3,0-6.5,0-9.8,0-.7.5-1.2,1.2-1.2.7,0,1.2.5,1.2,1.3,0,1.9,0,3.9,0,5.8,0,.2,0,.5,0,.9.3-.3.5-.5.7-.6,1.9-1.9,3.8-3.8,5.6-5.6.8-.8,1.8-.6,2.2.3.3.6,0,1.1-.5,1.5-1.8,1.8-3.7,3.7-5.5,5.5-.2.2-.4.4-.6.5,0,0,0,.1.1.2Z"/>
    <g>
      <path class="cls-1" d="m29.7,28.1c-2.6,1.1-5,2.4-7.2,4-4.1,2.9-7.5,6.6-10.1,10.9-.3.5-.3.8,0,1.3,2.3,3.8,5.2,7.1,8.7,9.9.2.2.5.3.6.5.5.5.5,1.1,0,1.6-.4.5-1,.7-1.6.3-.6-.4-1.3-1-1.9-1.5-3.4-2.9-6.2-6.3-8.5-10.2-.6-.9-.5-1.7,0-2.6,6.5-10.7,15.8-17.2,28.2-19.1,16-2.3,31.5,5.3,39.4,19.2.5.8.5,1.5,0,2.3-6.4,10.8-15.8,17.2-28.1,19.3-3.8.7-7.6.8-11.4-.3-7.7-2.3-12.6-7.5-14.6-15.2-2-7.7.2-14.4,5.7-20,0,0,.2-.2.3-.3,0,0,0,0,.1-.2Zm28,31.1c.4-.1.6-.2.7-.2,7.1-3.2,12.7-8.1,16.8-14.8.3-.4.2-.7,0-1.1-7.4-11.6-18-17.7-31.9-17.7-11.3,0-19.5,10.8-17.7,21.3,1.8,10.4,11.5,17.6,22.7,14.8,9-2.2,14.8-10.5,13.7-19.7-.2-1.8-.9-3.6-1.4-5.4-.2-.6-.2-1.2.4-1.5.4-.2,1-.1,1.4,0,.3,0,.5.5.6.8,2.4,6,2.1,11.9-.8,17.7-1.1,2.2-2.6,4-4.5,5.8Z"/>
      <path class="cls-1" d="m36.5,44.9c-1.2,0-2.3,0-3.5,0-1,0-1.5-.5-1.5-1.2,0-.7.6-1.2,1.5-1.2,1.1,0,2.3,0,3.5,0,.8-3.2,2.7-5.3,6.1-6.1,0-1.2,0-2.5,0-3.7,0-1,1.1-1.6,1.9-1,.3.2.5.8.5,1.2,0,1.2,0,2.3,0,3.6,3.3.8,5.3,2.8,6.1,6.1.8,0,1.6,0,2.4,0,2.1,0,2.5.2,2.5,1.2,0,1-.3,1.3-2.5,1.3-.8,0-1.6,0-2.4,0-.8,3.3-2.8,5.3-6.1,6.1,0,1.2,0,2.3,0,3.5,0,1-.5,1.5-1.2,1.5-.8,0-1.2-.6-1.2-1.5,0-1.1,0-2.3,0-3.4-3.3-.8-5.3-2.7-6.1-6.1Zm12.1-1.2c0-2.8-2.1-4.9-4.9-4.9-2.7,0-4.8,2.1-4.9,4.8,0,2.8,2.1,4.9,4.8,5,2.8,0,4.9-2.1,4.9-4.9Z"/>
      <path class="cls-1" d="m42.6,43.6c0-.7.6-1.2,1.3-1.2.7,0,1.2.6,1.2,1.3,0,.7-.6,1.2-1.3,1.2-.7,0-1.2-.6-1.2-1.3Z"/>
    </g>
  </g>
  <path class="cls-1" d="m43.8,62v2.6c-5.2-.2-14.7-1.4-23.5-8-2.2-1.7-4.1-3.4-5.6-5.1.6-.5,1.3-1,1.9-1.5,1.8,2,3.5,3.5,4.8,4.4,1.6,1.2,9.8,7.4,21.4,7.6.4,0,.8,0,1,0Z"/>
  <path class="cls-1" d="m44.2,22.8v2.5c2.1-.2,3.7.1,4.8.4,6.9,1.7,11.5,8.4,12.8,14.4.4,1.6.4,3,.4,3.8h2.5c0-3.4-.8-6-1.4-7.5-2.8-7.2-9.7-12.7-16.8-13.4-1-.1-1.8-.1-2.3,0Z"/>
</svg>