<?xml version="1.0" encoding="UTF-8"?>
<svg id="Capa_1" data-name="Capa 1" xmlns="http://www.w3.org/2000/svg" viewBox="0 0 87.5 87.3">
  <defs>
    <style>
      .cls-1 {
        fill: #0077b6;
        stroke-width: 0px;
      }
    </style>
  </defs>
  <path class="cls-1" d="m87.1,11.1c-2.9,3-5.9,6-8.8,9-.3.3-.8.7-1.4,1-.7.3-1.4.3-1.9.2-1.3-.1-2.6-.2-4.1-.3.3.4.5.6.7.8,6.5,8.2,9.5,17.5,8.8,28-1.1,18.2-14.5,33.4-32.4,36.8-12.1,2.3-23-.5-32.8-8-.8-.6-.9-1.3-.5-2,.5-.6,1.2-.7,2,0,5,3.9,10.5,6.5,16.7,7.6,11.7,2,22.2-.8,31.3-8.4,7.1-6,11.4-13.7,12.8-22.9,1.7-11.8-1.4-22.3-9.4-31.2,0,0-.2-.2-.2-.2-1.9,1.9-3.8,3.8-5.7,5.7,1.1,1.6,2.4,3.3,3.5,5.1,2.6,4.4,4,9.2,4,14.4,0,.6-.1,1.1-.7,1.4-.9.5-1.7-.2-1.9-1.4-.2-1.9-.3-3.9-.7-5.8-1-4.4-3-8.2-6-11.6,0-.1-.1-.3-.2-.3-2,2-3.9,3.9-5.8,5.8,3.9,4.8,5.4,10.3,4,16.5-1,4.7-3.7,8.5-7.6,11.3-7.7,5.4-18.5,4.2-24.7-2.9-6.5-7.3-6.4-18,0-25.2,6.6-7.3,18.1-8.6,26.2-1.7,1.9-1.9,3.8-3.8,5.7-5.7-1.7-1.6-3.7-2.9-5.9-4-16-8.1-35.4,1.5-38.6,19.1-2.8,15.3,7.6,29.7,23.1,31.8,13.5,1.8,26.7-7.3,29.7-20.6.3-1.4.8-1.8,1.7-1.7.9.2,1.1.9.8,2.2-2.8,12-12.9,21.1-25.2,22.6-15.8,2-30.6-9.4-32.8-25.1-2.1-15.6,7.8-29.9,23.2-33.1,9.3-2,17.8.3,25.1,6.4.3.2.6.5.8.7,1.9-1.9,3.8-3.8,5.8-5.8-.9-.7-1.8-1.6-2.8-2.3-8.1-6-17.1-8.5-27.1-7.4C19.7,11.3,6,24.1,3.2,40.2c-2.1,12,.9,22.6,8.8,31.9.1.1.2.3.3.4.5.6.4,1.4-.1,1.8-.6.5-1.3.4-1.8-.2-1.1-1.3-2.3-2.7-3.3-4.1C1.8,62.1-.6,53.5.1,44,1.5,27.5,12,13.8,27.8,8.8c13.5-4.3,26-1.9,37.4,6.6.4.3.7.6,1.2.9,0-1.5-.1-2.8-.3-4.1-.1-1.3.2-2.4,1.2-3.3,1-1,1.4-1.6,2.2-2.2,1-.8,2.9-2.5,6.6-6.4,0,0,.6-.5,1.3-.4.7.1,1.2.7,1.3,1.5.2,1.6.4,3.3.6,4.9.9-.9,1.8-1.9,2.7-2.8,0,0,.5-.5,1.2-.4.3,0,.6.3.6.4,0,0,.3.3.4.7,0,.6-.3,1.1-.4,1.1-.9,1-1.9,2-2.8,2.9,1.5,0,3.1.2,4.6.3,1,0,1.8.6,1.9,1.3.1.6-.2,1.1-.3,1.2Zm-36.5,23.6c-5-4.7-14.9-5.8-21.7.7-6.6,6.3-6.7,16.8-.2,23.2,6.5,6.4,16.9,6.4,23.2-.2,6.6-6.8,5.4-16.7.7-21.7-1.9,1.9-3.8,3.8-5.7,5.8,2.7,4.1,1.2,8.6-1.6,10.9-3.2,2.5-7.6,2.4-10.6-.4-2.9-2.7-3.4-7.2-1.2-10.5,1.1-1.7,2.7-2.8,4.6-3.3,2.5-.6,4.8-.2,6.8,1.2,2-2,3.9-3.8,5.8-5.7Zm-7.5,7.7c-2.3-1.5-5.5-1-7.2,1.2-1.8,2.2-1.6,5.4.4,7.4,2,2,5.2,2.2,7.4.4,2.1-1.7,2.7-4.9,1.2-7.2-1.1,1.1-2.2,2.2-3.3,3.3-1,1-1.6,1.1-2.2.5-.7-.6-.5-1.3.5-2.3,1.1-1.1,2.2-2.2,3.3-3.3Zm25.8-25.9c2.6-2.5,5.1-5.1,7.7-7.6-.1-1.7-.3-3.5-.4-5.2-2.6,2.6-5,5-7.4,7.4-.1.1-.2.4-.2.6,0,1.6.2,3.1.3,4.8Zm1.7,1.9c1.7.1,3.1.2,4.5.3.6,0,1.1,0,1.5-.5,2.1-2.2,4.3-4.3,6.4-6.4.2-.2.3-.4.6-.7-1.5-.1-3.1-.2-4.6-.3-.2,0-.4,0-.7,0-2.6,2.5-5.2,5.1-7.7,7.6Z"/>
  <path class="cls-1" d="m9,68c.8,1.2,1.8,2.6,3.2,4.1.9,1.1,2.5,2.7,4.6,4.4,1.8,1.5,3.6,2.6,5.2,3.5-.6.6-1.2,1.2-1.8,1.8-1.3-.7-2.8-1.7-4.5-3-1-.8-3-2.4-5.1-4.8-1.1-1.3-2.5-2.9-3.8-4.9.8-.4,1.5-.8,2.3-1.2Z"/>
  <path class="cls-1" d="m65.9,38.6h2.7c.6,2.1,1.2,4.8,1.2,8,0,1.6,0,3.9-.7,6.6-.5,2.4-1.2,4.3-1.9,5.9h-2.8c1-1.9,1.5-3.7,1.9-5,0-.3,1.1-4.4.9-7.9,0-.2,0-.7-.1-1.2-.2-1.5-.3-2.6-.5-3.7-.1-.6-.3-1.6-.7-2.7Z"/>
</svg>