<?xml version="1.0" encoding="UTF-8"?>
<svg id="Capa_1" data-name="Capa 1" xmlns="http://www.w3.org/2000/svg" viewBox="0 0 20.4 20.4">
  <defs>
    <style>
      .cls-1 {
        fill: #0077b6;
        stroke-width: 0px;
      }
    </style>
  </defs>
  <path class="cls-1" d="m10.2,20.4c-1.9,0-3.8,0-5.7,0-1.3,0-2.5,0-3.8,0-.4,0-.7-.3-.7-.7,0,0,0-.2,0-.2,0-3,0-5.9,0-8.9,0-3.2,0-6.5,0-9.7,0-.1,0-.3,0-.4C.2,0,.7-.2,1.1.1c0,0,.1.1.2.2,6.3,6.3,12.5,12.5,18.8,18.8.2.2.3.4.3.7,0,.3-.3.6-.6.6,0,0-.2,0-.3,0-2,0-4.1,0-6.1,0-1.1,0-2.2,0-3.2,0h0Zm7.7-1.5C12.4,13.5,6.9,8,1.4,2.5v4.1c.2,0,.4,0,.6,0,.5,0,.8.3.8.7,0,.4-.3.7-.8.7-.2,0-.4,0-.6,0v1.4c.2,0,.4,0,.6,0,.5,0,.8.3.8.7,0,.4-.3.7-.8.7-.2,0-.4,0-.6,0v1.4c.2,0,.4,0,.7,0,.4,0,.8.3.8.7,0,.4-.3.7-.8.7-.2,0-.4,0-.6,0v1.4c.2,0,.4,0,.6,0,.4,0,.8.3.8.7,0,.4-.3.7-.8.7-.2,0-.4,0-.6,0v2.4h2.4c0-.2,0-.4,0-.6,0-.5.3-.8.7-.8.4,0,.7.3.7.8,0,.2,0,.4,0,.6h1.4c0,0,0-.2,0-.3,0-.8.2-1.1.7-1.1.5,0,.7.3.7,1.1,0,0,0,.2,0,.3h1.4c0-.2,0-.4,0-.6,0-.4.3-.8.7-.8.4,0,.7.3.7.8,0,.2,0,.4,0,.6h1.4c0-.2,0-.4,0-.6,0-.4.3-.8.7-.8.4,0,.7.3.7.8,0,.2,0,.4,0,.6h4.1Z"/>
  <path class="cls-1" d="m7.8,16.2c-.9,0-1.8,0-2.7,0-.6,0-.9-.3-.9-.9,0-1.8,0-3.6,0-5.4,0-.2,0-.4.2-.6.2-.4.7-.4,1-.1,0,0,0,0,.1.1,1.9,1.9,3.7,3.7,5.6,5.6.4.4.4.9,0,1.2-.1,0-.3.1-.5.1-.9,0-1.8,0-2.7,0Zm-2.1-1.5h3.1c-1-1-2.1-2.1-3.1-3.1v3.1Z"/>
</svg>